<svg xmlns:xlink="http://www.w3.org/1999/xlink" xmlns="http://www.w3.org/2000/svg" viewBox="0 0 50 50" width="50"  height="50" >
  <linearGradient id="a" gradientUnits="userSpaceOnUse" x1="-637.805" y1="342.761" x2="-638.245" y2="343.016" gradientTransform="matrix(67.194 0 0 -71.6393 42893.707 24583.115)">
    <stop offset="0" stop-color="#bf71ff"/>
    <stop offset=".53" stop-color="#6a6aff"/>
    <stop offset="1" stop-color="#6afff3"/>
  </linearGradient>
  <path d="M18.98 18.986V7.503a.646.646 0 1 1 1.29 0v11.483a.646.646 0 1 1-1.29 0zM7.68 24.96c-6.561-6.641-6.507-17.348.121-23.922a.593.593 0 0 0 0-.86.61.61 0 0 0-.86 0l-.155.154a18.086 18.086 0 0 0 .155 25.609.604.604 0 0 0 .851-.009.586.586 0 0 0 0-.86l-.112-.112zM25 26.216a.638.638 0 0 0 .645-.646V7.494a.646.646 0 1 0-1.29 0v18.077c0 .171.068.335.189.457.121.12.285.188.456.188zm5.34-6.568a.646.646 0 0 0 .645-.646v-11.5a.646.646 0 1 0-1.29 0v11.483a.638.638 0 0 0 .628.663h.017zM12.866 5.979a.602.602 0 0 0-.86-.8l-.112.111c-4.281 4.361-4.223 11.368.129 15.658a.605.605 0 0 0 .43.172.595.595 0 0 0 .422-1.016l-.112-.121a9.899 9.899 0 0 1 .111-13.988l-.008-.016zm16.339 27.838h2.004v1.291a3.189 3.189 0 0 1-1.875.542 2.71 2.71 0 0 1-2.743-2.892 2.711 2.711 0 0 1 2.58-2.815 3.333 3.333 0 0 1 2.356.912l1.273-1.541a4.978 4.978 0 0 0-3.552-1.24 4.628 4.628 0 0 0-4.73 4.682 4.522 4.522 0 0 0 4.781 4.7 5.828 5.828 0 0 0 3.853-1.438v-3.925h-3.956l.009 1.724zm8.789-28.604a.592.592 0 0 0-.86 0 .586.586 0 0 0 0 .86c.033.041.07.079.112.112 3.824 3.895 3.774 10.154-.112 13.988a.612.612 0 0 0 0 .861.644.644 0 0 0 .413.155.587.587 0 0 0 .43-.189l.095-.103a11.085 11.085 0 0 0-.078-15.684zM23.375 34.368c0-2.04-1.402-2.892-3.156-2.892-.401-.005-.8.047-1.187.155l.103-1.567h3.844v-1.722h-5.53l-.258 4.416 1.144.766a3.929 3.929 0 0 1 1.505-.379c.937 0 1.6.448 1.6 1.222 0 .801-.585 1.257-1.514 1.257a3.145 3.145 0 0 1-2.15-.981l-1.204 1.429a4.625 4.625 0 0 0 3.38 1.36c2.09.026 3.44-1.188 3.44-3.099l-.017.035zM43.059.194a.592.592 0 0 0-.86 0 .586.586 0 0 0 0 .86l.138.146c6.545 6.641 6.483 17.331-.138 23.896a.61.61 0 0 0 0 .861.607.607 0 0 0 .86 0c.052-.06.112-.112.163-.164A18.09 18.09 0 0 0 43.059.194zM28.104 48.709h-2.477v-8.866a.646.646 0 1 0-1.29 0v8.866H21.87a.646.646 0 0 0 0 1.292h6.235a.646.646 0 0 0-.001-1.292z" fill-rule="evenodd" clip-rule="evenodd" fill="url(#a)"/>
</svg>