<svg xmlns:xlink="http://www.w3.org/1999/xlink" xmlns="http://www.w3.org/2000/svg" id="ic_android" viewBox="0 0 24 24" width="24"  height="24" >
  <g transform="translate(-13 -12)" fill="#9193A8">
    <g transform="translate(13 12)" fill="#9193A8">
      <path d="M7.334 19.816H1.817A.828.828 0 0 1 1 18.999V7.147c0-.476.374-.817.817-.817h5.517c.477 0 .817.374.817.817v11.851c.035.443-.34.818-.817.818zM1.817 6.807a.342.342 0 0 0-.341.341v11.851c0 .102.034.17.102.238a.309.309 0 0 0 .238.102h5.517c.17 0 .306-.136.306-.341V7.147a.342.342 0 0 0-.341-.341H1.817z" fill="#9193A8"></path>
      <circle cx="4.576" cy="17.705" r=".579" fill="#9193A8"></circle>
      <circle cx="20.889" cy="12.051" r=".579" fill="#9193A8"></circle>
      <path d="M22.183 19.816H9.071a.232.232 0 0 1-.238-.238c0-.136.102-.238.238-.238h13.112c.102 0 .17-.034.238-.102a.309.309 0 0 0 .102-.238V5.036a.309.309 0 0 0-.102-.238.309.309 0 0 0-.238-.102H3.929a.342.342 0 0 0-.341.341v.373c0 .102-.034.204-.136.238-.102.034-.204.068-.273 0s-.102-.136-.102-.238v-.409c0-.443.374-.817.852-.817h18.254c.443 0 .817.375.817.817v13.963c0 .477-.374.852-.817.852z" fill="#9193A8"></path>
    </g>
  </g>
  <g transform="translate(-66.971 -261.917)" fill="#9193A8">
    <g transform="translate(480.526 -75.04) scale(1.32125)" fill="#9193A8">
      <path d="M-304.522 265.499c-.16 0-.325.128-.325.354 0 .206.145.351.325.351.149 0 .215-.1.215-.1v.043c0 .021.019.044.043.044h.108v-.676h-.151v.086a.259.259 0 0 0-.215-.102zm.027.138c.132 0 .201.116.201.215 0 .11-.083.215-.201.215-.099 0-.199-.08-.199-.217 0-.122.086-.213.199-.213z" fill="#9193A8"></path>
      <path d="M-303.946 266.191a.042.042 0 0 1-.043-.044v-.633h.151v.084c.034-.052.101-.099.204-.099.168 0 .257.134.257.259v.433h-.105a.046.046 0 0 1-.046-.046v-.354c0-.07-.043-.154-.141-.154-.106 0-.169.1-.169.194v.359l-.108.001z" fill="#9193A8"></path>
      <path d="M-302.936 265.499c-.16 0-.325.128-.325.354 0 .206.145.351.325.351.149 0 .215-.1.215-.1v.043c0 .021.019.044.044.044h.108v-1.015h-.151v.424c-.001 0-.068-.101-.216-.101zm.027.138c.132 0 .201.116.201.215 0 .11-.082.215-.201.215-.099 0-.199-.08-.199-.217 0-.122.085-.213.199-.213z" fill="#9193A8"></path>
      <path d="M-302.36 266.191a.042.042 0 0 1-.043-.044v-.633h.151v.113a.186.186 0 0 1 .182-.12c.028 0 .054.005.054.005v.156s-.032-.013-.072-.013c-.106 0-.164.1-.164.194v.341l-.108.001z" fill="#9193A8"></path>
      <path d="M-301.1 266.191a.042.042 0 0 1-.043-.044v-.633h.151v.676l-.108.001z" fill="#9193A8"></path>
      <path d="M-300.549 265.499c-.16 0-.325.128-.325.354 0 .206.145.351.325.351.149 0 .215-.1.215-.1v.043c0 .021.019.044.043.044h.108v-1.015h-.151v.424a.258.258 0 0 0-.215-.101zm.027.138c.132 0 .201.116.201.215 0 .11-.083.215-.201.215-.099 0-.199-.08-.199-.217.001-.122.086-.213.199-.213z" fill="#9193A8"></path>
      <circle cx="-301.069" cy="265.269" r=".1" fill="#9193A8"></circle>
      <path d="M-301.618 265.499a.347.347 0 0 0-.352.352c0 .207.157.352.352.352a.352.352 0 0 0 0-.704zm.001.141c.116 0 .203.094.203.212 0 .12-.092.213-.203.213a.205.205 0 0 1-.202-.211c0-.13.094-.214.202-.214z" fill="#9193A8"></path>
    </g>
    <path d="M82.331 272.342l.511-.885a.103.103 0 1 0-.178-.104l-.518.897a3.162 3.162 0 0 0-1.318-.281c-.478 0-.922.1-1.318.281l-.518-.897a.102.102 0 0 0-.141-.037.102.102 0 0 0-.037.141l.511.885a3.05 3.05 0 0 0-1.576 2.413h6.16a3.05 3.05 0 0 0-1.578-2.413zm-2.917 1.548a.258.258 0 1 1 0-.516.258.258 0 0 1 0 .516zm2.828 0a.258.258 0 1 1 0-.516.258.258 0 0 1 0 .516z" fill="#9193A8"></path>
  </g>
</svg>