<svg xmlns:xlink="http://www.w3.org/1999/xlink" xmlns="http://www.w3.org/2000/svg" id="ic_appletv" viewBox="0 0 24 24" width="24"  height="24" >
  <path d="M12.899 10.51v-.364h-.501v-.569l-.501.114v.455h-.296v.364h.296v1.024a.778.778 0 0 0 .159.546.517.517 0 0 0 .432.159c.114 0 .25-.023.364-.046v-.387c-.068.023-.137.023-.205.023-.182 0-.25-.137-.25-.364v-.955h.502zm1.569-.364l-.319 1.092c-.046.182-.091.341-.137.501-.046-.159-.068-.319-.137-.501l-.319-1.092h-.546l.728 2.07h.501l.774-2.07h-.545zm-3.594.796c0-.228.114-.432.296-.523a.67.67 0 0 0-.523-.273c-.228-.023-.432.137-.546.137s-.296-.137-.478-.114a.645.645 0 0 0-.569.341c-.25.432-.068 1.069.182 1.411.114.182.25.364.432.364s.25-.114.455-.114c.205 0 .273.114.455.114s.319-.182.432-.341c.091-.114.159-.273.205-.41a.731.731 0 0 1-.341-.592zm-.614-1.251a.6.6 0 0 0-.16.432.487.487 0 0 0 .41-.205.576.576 0 0 0 .137-.455.758.758 0 0 0-.387.228z" fill="#9193A8"></path>
  <path d="M22.34 4.663H1.637A.636.636 0 0 0 1 5.3v11.148c0 .341.273.637.637.637h10.192v1.888H8.758c-.091 0-.182.068-.182.182s.068.182.182.182h6.484c.091 0 .182-.068.182-.182s-.068-.182-.182-.182h-3.071v-1.888h10.192a.636.636 0 0 0 .637-.637V5.3c-.046-.364-.319-.637-.66-.637zm.296 11.762a.277.277 0 0 1-.273.273H1.66a.277.277 0 0 1-.273-.273V5.277c0-.159.137-.273.273-.273h20.703c.159 0 .273.137.273.273v11.148z" fill="#9193A8"></path>
</svg>