<svg xmlns:xlink="http://www.w3.org/1999/xlink" xmlns="http://www.w3.org/2000/svg" class="svg-icon svg-icon-larger" width="24"  height="24" ><defs><symbol id="ic_checkcircle" viewBox="0 0 24 24" fill="#9193A8">
    <path d="M6.497 12.47c0-.24.095-.487.28-.67a.956.956 0 0 1 1.344 0l1.864 1.846 5.027-5.01a.957.957 0 0 1 1.347 0 .94.94 0 0 1 .01 1.328l-.01.01-5.703 5.682a.955.955 0 0 1-1.345 0L6.77 13.14a.99.99 0 0 1-.273-.67z" fill="#9193A8"></path>
    <path d="M12 1.006C5.923 1.006 1 5.928 1 12s4.927 10.994 11 10.994c6.077 0 11-4.922 11-10.994S18.077 1.006 12 1.006zm.017 20.163C6.96 21.17 2.86 17.066 2.86 12c0-5.06 4.1-9.17 9.157-9.17s9.158 4.103 9.158 9.17-4.102 9.17-9.158 9.17z" fill="#9193A8"></path>
  </symbol></defs><use xlink:href="#ic_checkcircle" fill="#9193A8"></use></svg>