<svg xmlns:xlink="http://www.w3.org/1999/xlink" xmlns="http://www.w3.org/2000/svg" id="ic_chrome" viewBox="0 0 24 24" width="24"  height="24" >
  <path d="M22.153 20.898H1.815A.808.808 0 0 1 1 20.083V3.917c0-.456.359-.815.815-.815h20.37c.456 0 .815.359.815.815V20.05a.842.842 0 0 1-.847.848zM1.815 3.656a.28.28 0 0 0-.261.261V20.05c0 .13.098.261.261.261h20.37a.28.28 0 0 0 .261-.261V3.917a.258.258 0 0 0-.261-.261H1.815z" fill="#9193A8"></path>
  <circle cx="3.151" cy="5.286" r=".456" fill="#9193A8"></circle>
  <circle cx="4.65" cy="5.286" r=".456" fill="#9193A8"></circle>
  <circle cx="6.15" cy="5.286" r=".456" fill="#9193A8"></circle>
  <path d="M11.984 10.827c.684 0 1.271.554 1.271 1.271 0 .684-.554 1.271-1.271 1.271a1.272 1.272 0 0 1 0-2.542z" fill="#9193A8"></path>
  <path d="M11.984 13.89c-.652 0-1.271-.359-1.564-.913L8.855 10.24c-1.01 1.727-.424 3.976 1.336 4.954.359.228.782.359 1.206.424l1.043-1.825a1.281 1.281 0 0 1-.456.097zm0-3.617h3.161c-1.01-1.727-3.227-2.347-4.954-1.336-.358.227-.717.488-.978.814l1.043 1.825a1.717 1.717 0 0 1 1.728-1.303zm3.422.554h-2.119c.326.326.521.782.489 1.271 0 .326-.098.619-.228.913l-1.564 2.705c2.021 0 3.618-1.63 3.618-3.65a3.976 3.976 0 0 0-.196-1.239z" fill="#9193A8"></path>
</svg>