<svg xmlns:xlink="http://www.w3.org/1999/xlink" xmlns="http://www.w3.org/2000/svg" id="ic_close" viewBox="0 0 24 24" width="24"  height="24" >
  <path d="M13.274 11.997l9.41-9.416a.913.913 0 1 0-1.247-1.334c-.016.016-.033.027-.044.044l-9.41 9.416-9.388-9.394A.912.912 0 1 0 1.26 2.554c.017.016.028.033.044.044l9.405 9.416L1.3 21.42a.913.913 0 1 0 1.246 1.334c.016-.016.033-.027.044-.044L12 13.294l9.41 9.416a.913.913 0 1 0 1.335-1.247c-.016-.016-.027-.033-.044-.044l-9.426-9.423z" fill="#9193A8"></path>
</svg>