<svg xmlns:xlink="http://www.w3.org/1999/xlink" xmlns="http://www.w3.org/2000/svg" class="svg-icon gauge-icon icon-gauge-download test-mode-multi" title="Download" width="24.01"  height="23.99" ><defs><symbol id="icon-download" viewBox="0 0 24.01 23.99" fill="#9193A8">
    <path d="M54.26,198.5a12,12,0,1,0,12,12A12,12,0,0,0,54.26,198.5Zm0,22a10,10,0,1,1,10-10A10,10,0,0,1,54.28,220.5Zm5-11a1,1,0,0,0-.71.29l-3.3,3.3V205.5a1,1,0,0,0-2,0v7.59L50,209.8a1,1,0,1,0-1.42,1.42l5,5a1,1,0,0,0,1.42,0l5-5A1,1,0,0,0,59.28,209.5Z" transform="translate(-42.26 -198.5)" fill="#9193A8"></path>
  </symbol></defs><use xlink:href="#icon-download" fill="#6AFFF3"></use></svg>