<svg xmlns:xlink="http://www.w3.org/1999/xlink" xmlns="http://www.w3.org/2000/svg" viewBox="0 0 50 50" width="50"  height="50" >
  <g transform="translate(-10 -10)">
    <linearGradient id="a" gradientUnits="userSpaceOnUse" x1="-627.655" y1="354.24" x2="-628.437" y2="354.666" gradientTransform="matrix(67.8788 0 0 -67.85 42668.645 24086.85)">
      <stop offset="0" stop-color="#bf71ff"/>
      <stop offset=".53" stop-color="#6a6aff"/>
      <stop offset="1" stop-color="#6afff3"/>
    </linearGradient>
    <path d="M60 14.828v44.367a.794.794 0 0 1-1.588 0V14.828a3.24 3.24 0 0 0-3.177-3.23H32.692a3.241 3.241 0 0 0-3.177 3.23v44.367a.794.794 0 0 1-1.588 0v-36.34H14.818a3.24 3.24 0 0 0-3.23 3.23v33.058A.794.794 0 1 1 10 59.142V26.084a4.829 4.829 0 0 1 4.818-4.818h13.056v-6.438a4.818 4.818 0 0 1 4.818-4.818h22.49A4.829 4.829 0 0 1 60 14.828zM22.939 28.827h-6.353a.794.794 0 0 0 0 1.588h6.353a.794.794 0 0 0 0-1.588zm0 6.586h-6.353a.794.794 0 0 0 0 1.588h6.353a.794.794 0 0 0 0-1.588zm0 6.586h-6.353a.794.794 0 0 0 0 1.588h6.353a.794.794 0 0 0 0-1.588zm0 6.586h-6.353a.794.794 0 0 0 0 1.588h6.353a.794.794 0 0 0 0-1.588zm18.065-29.648h-6.353a.794.794 0 0 0 0 1.588h6.353a.794.794 0 0 0 0-1.588zm0 6.586h-6.353a.794.794 0 0 0 0 1.588h6.353a.794.794 0 0 0 0-1.588zm0 6.586h-6.353a.794.794 0 0 0 0 1.588h6.353a.794.794 0 0 0 0-1.588zm0 6.586h-6.353a.794.794 0 0 0 0 1.588h6.353a.794.794 0 0 0 0-1.588zm11.393-19.8h-6.353a.794.794 0 0 0 0 1.588h6.353a.794.794 0 0 0 0-1.588zm0 6.586h-6.353a.794.794 0 0 0 0 1.588h6.353a.794.794 0 0 0 0-1.588zm0 6.586h-6.353a.794.794 0 0 0 0 1.588h6.353a.794.794 0 0 0 0-1.588zm0 6.586h-6.353a.794.794 0 0 0 0 1.588h6.353a.794.794 0 0 0 0-1.588z" fill="url(#a)"/>
  </g>
</svg>