<svg xmlns:xlink="http://www.w3.org/1999/xlink" xmlns="http://www.w3.org/2000/svg" viewBox="0 0 50 50" width="50"  height="50" >
  <g transform="translate(-13 -13)">
    <linearGradient id="a" gradientUnits="userSpaceOnUse" x1="-626.89" y1="358.639" x2="-627.421" y2="359.241" gradientTransform="matrix(62.3361 0 0 -62.3201 39132.441 22407.156)">
      <stop offset="0" stop-color="#bf71ff"/>
      <stop offset=".53" stop-color="#6a6aff"/>
      <stop offset="1" stop-color="#6afff3"/>
    </linearGradient>
    <path d="M26.706 39.228v10.38a.77.77 0 0 1-1.54 0v-10.38a.77.77 0 0 1 1.54 0zm3.265-1.561a.77.77 0 0 0-.77.77v19.877a.77.77 0 0 0 1.54 0V38.437a.761.761 0 0 0-.821-.77h.051zm4.045-19.661a.76.76 0 0 0-.77.77v4.928a.77.77 0 0 0 1.54 0v-4.928a.774.774 0 0 0-.821-.77h.051zm0 21.191a.77.77 0 0 0-.77.77v10.616a.77.77 0 0 0 1.54 0V39.967a.779.779 0 0 0-.822-.77h.052zM38 40.994a.77.77 0 0 0-.77.77v4.774a.77.77 0 0 0 1.54 0v-4.774a.77.77 0 0 0-.77-.77zm4.035-25.668a.78.78 0 0 0-.77.77v2.68a.77.77 0 0 0 1.54 0v-2.731a.77.77 0 0 0-.77-.77v.051zm0 15.237a.77.77 0 0 0-.77.77v3.563a.77.77 0 0 0 1.54 0v-3.614a.76.76 0 0 0-.77-.77v.051zM63 37.975a25.001 25.001 0 1 1-45.904-13.696l.051-.082a24.817 24.817 0 0 1 4.107-4.784.582.582 0 0 1 .113-.103 24.635 24.635 0 0 1 4.107-2.957l.133-.082a24.334 24.334 0 0 1 3.994-1.838h.082a24.953 24.953 0 0 1 16.632 0h.082a24.334 24.334 0 0 1 3.994 1.838l.133.082a25.3 25.3 0 0 1 4.107 2.957c.042.029.08.063.113.103a25.12 25.12 0 0 1 4.107 4.774.479.479 0 0 1 .062.092A24.876 24.876 0 0 1 63 37.975zm-1.54 0a23.323 23.323 0 0 0-2.495-10.513v12.32a.77.77 0 0 1-1.54 0V24.834a23.29 23.29 0 0 0-2.505-3.08v24.795a.77.77 0 0 1-1.54 0V20.285a22.441 22.441 0 0 0-2.495-1.899v21.478a.77.77 0 0 1-1.54 0V17.441a22.17 22.17 0 0 0-2.495-1.201v20.791a.77.77 0 0 1-1.54 0V15.686a23.407 23.407 0 0 0-14.62 0v10.893a.77.77 0 0 1-1.54 0V16.251c-.838.347-1.654.745-2.444 1.191V28.89a.77.77 0 0 1-1.54 0V18.386a22.654 22.654 0 0 0-2.567 1.899v21.797a.77.77 0 0 1-1.54 0V21.754a23.355 23.355 0 0 0-2.505 3.08v10.062a.77.77 0 0 1-1.54 0v-7.433A23.46 23.46 0 1 0 61.46 37.975z" fill="url(#a)"/>
  </g>
</svg>