<svg xmlns:xlink="http://www.w3.org/1999/xlink" xmlns="http://www.w3.org/2000/svg" class="svg-icon svg-icon-ms svg-icon-ring" width="36"  height="36" ><defs><symbol id="icon-internet" viewBox="0 0 24 24" fill="#9193A8">
    <path d="M12 1C5.94 1 1 5.94 1 12s4.94 11 11 11 11-4.94 11-11S18.06 1 12 1zm9.444 10.247H16.99c-.11-3.487-.86-6.44-2.042-8.26 3.542 1.18 6.177 4.398 6.496 8.26zM12 21.444c-1.557 0-3.273-3.646-3.432-8.69h6.924c-.22 5.043-1.935 8.69-3.492 8.69zM8.568 11.247c.16-5.043 1.875-8.69 3.432-8.69s3.273 3.647 3.432 8.69H8.568zm.48-8.262C7.863 4.812 7.115 7.76 7.005 11.197H2.55c.325-3.812 2.96-7.03 6.497-8.212zm-6.492 9.768H7.01c.11 3.487.86 6.385 2.04 8.212-3.54-1.133-6.175-4.35-6.494-8.212zm12.397 8.26c1.183-1.825 1.93-4.773 2.04-8.21h4.455c-.323 3.812-2.958 7.03-6.495 8.21z" fill="#9193A8"></path>
  </symbol></defs><use xlink:href="#icon-internet" fill="#9193A8"></use></svg>