<svg xmlns:xlink="http://www.w3.org/1999/xlink" xmlns="http://www.w3.org/2000/svg" id="ic_ios" viewBox="0 0 24 24" width="24"  height="24" >
  <path d="M7.339 19.816h-5.5c-.463 0-.811-.376-.839-.839V7.137a.84.84 0 0 1 .839-.839h5.5a.84.84 0 0 1 .839.839v11.839a.839.839 0 0 1-.839.84zm-5.5-12.998a.32.32 0 0 0-.318.318v11.839a.32.32 0 0 0 .318.318h5.529a.32.32 0 0 0 .318-.318V7.137a.32.32 0 0 0-.318-.318l-5.529-.001z" fill="#9193A8"></path>
  <circle cx="4.589" cy="17.703" r=".579" fill="#9193A8"></circle>
  <circle cx="20.887" cy="12.058" r=".579" fill="#9193A8"></circle>
  <path d="M22.189 19.816H9.076c-.145 0-.261-.116-.261-.261s.116-.261.261-.261H22.16a.32.32 0 0 0 .318-.318V5.024a.32.32 0 0 0-.318-.318H3.924a.32.32 0 0 0-.318.318V5.4c.029.145-.087.261-.232.289-.145.029-.261-.086-.29-.231v-.434a.84.84 0 0 1 .839-.839h18.266c.464-.001.811.376.811.839v13.982c0 .433-.376.81-.811.81z" fill="#9193A8"></path>
  <path d="M10.118 13.65h-.289v-2.374h.289v2.374zm-.144-2.866c-.116 0-.203-.058-.232-.174-.029-.116.058-.203.174-.232h.058c.116 0 .203.058.232.174.029.116-.058.203-.174.232h-.058zm2.113 2.924c-.926 0-1.505-.666-1.505-1.708s.579-1.708 1.505-1.708 1.505.666 1.505 1.708-.579 1.708-1.505 1.708zm3.039 0c-.695 0-1.187-.376-1.216-.955h.318c.029.405.405.666.926.666s.839-.261.839-.637c0-.318-.203-.492-.695-.608l-.405-.116c-.608-.145-.897-.405-.897-.839 0-.521.492-.926 1.129-.926s1.129.376 1.129.897h-.318c-.029-.376-.347-.637-.839-.637s-.782.289-.782.637c0 .289.203.463.695.579l.347.087c.666.174.955.434.955.868.001.608-.462.984-1.186.984zm-3.039-3.126c-.724 0-1.187.55-1.187 1.418s.463 1.418 1.187 1.418 1.187-.55 1.187-1.418-.463-1.418-1.187-1.418z" fill="#9193A8"></path>
</svg>