<svg xmlns:xlink="http://www.w3.org/1999/xlink" xmlns="http://www.w3.org/2000/svg" viewBox="0 0 50 50" width="50"  height="50" >
  <linearGradient id="a" gradientUnits="userSpaceOnUse" x1="-644.258" y1="343.419" x2="-644.525" y2="343.894" gradientTransform="matrix(43.9734 0 0 -69.342 28363.012 23852.01)">
    <stop offset="0" stop-color="#bf71ff"/>
    <stop offset=".53" stop-color="#6a6aff"/>
    <stop offset="1" stop-color="#6afff3"/>
  </linearGradient>
  <path d="M31.839 37.129h-.162a.768.768 0 0 1-.578-.909 30.352 30.352 0 0 1 5.07-11.387c1.754-2.716 3.164-4.866 3.164-8.904 0-5.103-2.735-9.819-7.174-12.371s-9.909-2.552-14.348 0-7.174 7.267-7.174 12.371c0 4.038 1.409 6.218 3.204 8.934a30.348 30.348 0 0 1 5.06 11.357.764.764 0 0 1-1.491.323 29.004 29.004 0 0 0-4.806-10.882c-1.856-2.816-3.458-5.239-3.458-9.762C9.156 7.236 16.122.17 24.823 0h.324c8.724.154 15.714 7.243 15.707 15.93 0 4.523-1.602 6.945-3.458 9.762a29.005 29.005 0 0 0-4.806 10.852.76.76 0 0 1-.751.585zm.791 5.704a.753.753 0 0 0-.761-.757H17.887c-.42 0-.76.339-.76.757s.34.757.76.757H31.87a.76.76 0 0 0 .761-.747v-.01zm-3.457 6.41a.758.758 0 0 0-.76-.757h-7.351c-.42 0-.76.339-.76.757s.34.757.76.757h7.351a.769.769 0 0 0 .76-.757z" fill="url(#a)"/>
</svg>