<svg xmlns:xlink="http://www.w3.org/1999/xlink" xmlns="http://www.w3.org/2000/svg" id="logo_speedtest" viewBox="0 0 193 24" width="193"  height="24" >
  <path d="M35.7 19.3l1.9-2.3c1.7 1.5 3.5 2.4 5.8 2.4 2 0 3.2-.9 3.2-2.3V17c0-1.3-.7-2-4.1-2.8-3.9-.9-6.1-2.1-6.1-5.5 0-3.1 2.6-5.3 6.3-5.3 2.7 0 4.8.8 6.7 2.3l-1.7 2.4c-1.6-1.2-3.3-1.9-5-1.9-1.9 0-3 1-3 2.2v.1c0 1.4.8 2.1 4.4 2.9 3.9.9 5.9 2.3 5.9 5.4v.1c0 3.4-2.7 5.5-6.6 5.5-2.9-.2-5.5-1.1-7.7-3.1m23.9-6.1c2.4 0 3.9-1.4 3.9-3.3 0-2.2-1.5-3.3-3.9-3.3h-3.7v6.6h3.7zm-7-9.5h7.2c4.3 0 7 2.4 7 6.1v.1c0 4.1-3.3 6.3-7.3 6.3h-3.6V22h-3.2l-.1-18.3zm17 0h13.6v2.8H72.8v4.8H82v2.9h-9.2v4.9h10.5V22H69.6zm17 0h13.6v2.8H89.8v4.8H99v2.9h-9.2v4.9h10.5V22H86.6zm20.2 2.9v12.5h3.6c3.8 0 6.4-2.6 6.4-6.2v-.1c0-3.6-2.5-6.2-6.4-6.2h-3.6zm-3.2-2.9h6.8c5.8 0 9.7 3.9 9.7 9.1v.1c0 5.2-4 9.2-9.7 9.2h-6.8V3.7zm24.2 2.9H122V3.7h14.9v2.9h-5.8V22h-3.3zm12.5-2.9h13.6v2.8h-10.4v4.8h9.2v2.9h-9.2v4.9H154V22h-13.7zm16.3 15.6l1.9-2.3c1.7 1.5 3.5 2.4 5.8 2.4 2 0 3.2-.9 3.2-2.3V17c0-1.3-.7-2-4.1-2.8-3.9-.9-6.1-2.1-6.1-5.5 0-3.1 2.6-5.3 6.3-5.3 2.7 0 4.8.8 6.7 2.3l-1.7 2.4c-1.6-1.2-3.3-1.9-5-1.9-1.9 0-3 1-3 2.2v.1c0 1.4.8 2.1 4.4 2.9 3.9.9 5.9 2.3 5.9 5.4v.1c0 3.4-2.7 5.5-6.6 5.5-2.9-.2-5.5-1.1-7.7-3.1m22.1-12.7h-5.8V3.7h14.9v2.9H182V22h-3.3zM23 23c2.3-2.3 3.8-5.5 3.8-9.1C26.8 6.8 21 1 13.9 1 6.8 1 1 6.8 1 13.9c0 3.6 1.4 6.8 3.8 9.1l1.8-1.8c-1.9-1.9-3-4.4-3-7.3 0-5.7 4.6-10.3 10.3-10.3 5.7 0 10.3 4.6 10.3 10.3 0 2.8-1.2 5.4-3 7.3L23 23z" fill="#9193A8"></path>
  <path d="M13.5 16.5l-2.2-2.3 7.3-6.4 1.3 1.4zM190.8 5.1c.2 0 .4-.1.4-.3 0-.2-.1-.3-.4-.3h-.5v.6h.5zm-.8-.9h.8c.2 0 .4.1.5.2.1.1.2.2.2.4 0 .3-.2.5-.4.5l.5.7h-.4l-.4-.6h-.4V6h-.4V4.2z" fill="#9193A8"></path>
  <path d="M190.7 3.6c-.8 0-1.5.7-1.5 1.5s.7 1.5 1.5 1.5 1.5-.7 1.5-1.5-.7-1.5-1.5-1.5m0 .2c.7 0 1.3.6 1.3 1.3 0 .7-.6 1.3-1.3 1.3-.7 0-1.3-.6-1.3-1.3 0-.7.5-1.3 1.3-1.3" fill="#9193A8"></path>
</svg>