<svg xmlns:xlink="http://www.w3.org/1999/xlink" xmlns="http://www.w3.org/2000/svg" id="ic_osx" viewBox="0 0 24 24" width="24"  height="24" >
  <path d="M12.023 8.677c-1.404 0-2.574 1.147-2.574 2.551s1.147 2.574 2.551 2.574 2.574-1.147 2.574-2.551c0-1.404-1.146-2.551-2.551-2.574zm1.241 4.119h-.304l-.936-1.334-.936 1.334h-.304l1.1-1.545-1.1-1.545h.304l.936 1.334.936-1.334h.304l-1.1 1.545 1.1 1.545z" fill="#9193A8"></path>
  <path d="M19.817 17.383H4.206a.79.79 0 0 1-.796-.796V5.891a.79.79 0 0 1 .796-.796h15.611a.79.79 0 0 1 .796.796v10.696a.79.79 0 0 1-.796.796zM4.206 5.494a.394.394 0 0 0-.398.398v10.696a.41.41 0 0 0 .398.398h15.611a.41.41 0 0 0 .398-.398V5.891a.41.41 0 0 0-.398-.398l-15.611.001zm18.607 13.41H1.187c-.117 0-.187-.117-.187-.21 0-.094.094-.164.187-.187h21.626a.226.226 0 0 1 .187.233c-.023.094-.094.164-.187.164z" fill="#9193A8"></path>
</svg>