<svg xmlns:xlink="http://www.w3.org/1999/xlink" xmlns="http://www.w3.org/2000/svg" class="svg-icon svg-icon-sm svg-icon-ring" width="24"  height="24" ><defs><symbol id="ic_single" viewBox="0 0 24 24" fill="#9193A8">
    <path d="M1.673 11.322H3.02a.673.673 0 0 1 0 1.346H1.673a.673.673 0 0 1 0-1.346zM5.49 11.097a.898.898 0 0 1 0 1.796.898.898 0 0 1 0-1.796zM8.182 11.097a.898.898 0 0 1 0 1.796.898.898 0 0 1 0-1.796zM10.875 11.097a.898.898 0 0 1 0 1.796.9.9 0 0 1 0-1.796zM13.57 11.097a.898.898 0 0 1 0 1.796.898.898 0 0 1 0-1.796zM16.262 11.097a.898.898 0 0 1 0 1.796.898.898 0 0 1 0-1.796zM18.73 11.322h2.245a.673.673 0 0 1 0 1.346H18.73a.672.672 0 0 1 0-1.346z" fill="#9193A8"></path>
    <path d="M20.58 9.306l2.223 2.222a.673.673 0 0 1-.952.952l-2.222-2.222a.673.673 0 0 1 0-.952.675.675 0 0 1 .95 0z" fill="#9193A8"></path>
    <path d="M19.63 13.74l2.22-2.22a.673.673 0 0 1 .952.952l-2.22 2.22a.673.673 0 0 1-.952-.952z" fill="#9193A8"></path>
  </symbol></defs><use xlink:href="#ic_single" fill="#9193A8"></use></svg>