<svg xmlns:xlink="http://www.w3.org/1999/xlink" xmlns="http://www.w3.org/2000/svg" class="svg-icon svg-icon-ms svg-icon-ring active" data-mode="multi" width="36"  height="36" ><defs><symbol id="ic_multi" viewBox="0 0 24 24" fill="#9193A8">
    <path d="M1.733 3.44h1.955a.733.733 0 0 1 0 1.466H1.734a.733.733 0 0 1 0-1.466zM6.376 3.197a.978.978 0 0 1 0 1.956.98.98 0 0 1 0-1.956zM9.31 3.197a.978.978 0 0 1 0 1.956.978.978 0 0 1 0-1.956zM12.242 3.197a.978.978 0 0 1 0 1.956.978.978 0 0 1 0-1.956zM14.93 3.44h2.933a.733.733 0 0 1 0 1.466H14.93a.733.733 0 0 1 0-1.466z" fill="#9193A8"></path>
    <path d="M17.433 1.247l2.42 2.42a.734.734 0 0 1-1.037 1.037l-2.42-2.42a.732.732 0 0 1 1.037-1.037z" fill="#9193A8"></path>
    <path d="M16.397 6.076l2.42-2.42a.734.734 0 0 1 1.037 1.037l-2.42 2.42a.732.732 0 0 1-1.037-1.037z" fill="#9193A8"></path>
    <path d="M1.733 19.082h1.955a.733.733 0 0 1 0 1.466H1.734a.733.733 0 0 1 0-1.466zM6.376 18.837a.978.978 0 0 1 0 1.956.978.978 0 0 1-.978-.978c0-.54.44-.978.978-.978zM9.31 18.837a.978.978 0 0 1 0 1.956.98.98 0 0 1 0-1.956zM12.242 18.837a.978.978 0 0 1 0 1.956.978.978 0 0 1 0-1.956zM14.93 19.082h2.933a.733.733 0 0 1 0 1.466H14.93a.733.733 0 0 1 0-1.466z" fill="#9193A8"></path>
    <path d="M17.433 16.887l2.42 2.42a.734.734 0 0 1-1.037 1.037l-2.42-2.42a.734.734 0 0 1 1.037-1.037z" fill="#9193A8"></path>
    <path d="M16.397 21.716l2.42-2.42a.734.734 0 0 1 1.037 1.037l-2.42 2.42a.732.732 0 0 1-1.037-1.037z" fill="#9193A8"></path>
    <path d="M4.666 11.26H6.62a.733.733 0 0 1 0 1.466H4.667a.733.733 0 0 1 0-1.466zM9.31 11.017a.978.978 0 0 1 0 1.956.98.98 0 0 1 0-1.956zM12.242 11.017a.978.978 0 0 1 0 1.956.978.978 0 0 1 0-1.956zM15.174 11.017a.978.978 0 0 1 0 1.956.98.98 0 0 1 0-1.956zM17.863 11.26h2.933a.733.733 0 0 1 0 1.466h-2.934a.733.733 0 0 1 0-1.466z" fill="#9193A8"></path>
    <path d="M20.366 9.067l2.42 2.42a.734.734 0 0 1-1.037 1.037l-2.42-2.42a.734.734 0 0 1 1.037-1.037z" fill="#9193A8"></path>
    <path d="M19.33 13.896l2.418-2.42a.734.734 0 0 1 1.037 1.037l-2.42 2.42a.734.734 0 0 1-1.037-1.037z" fill="#9193A8"></path>
  </symbol></defs>
        <use xlink:href="#ic_multi" fill="#9193A8"></use>
      </svg>