<svg xmlns:xlink="http://www.w3.org/1999/xlink" xmlns="http://www.w3.org/2000/svg" class="svg-icon svg-icon-ookla-logo" width="78.327"  height="25" ><defs><symbol id="ookla-logo" viewBox="0 0 78.327 25" fill="#9193A8">
    <path d="M50.854 24.46L38.45 12.137l.008 2.182 10.215 10.15zM47.748 24.472l-9.287-9.23.008 2.21 7.072 7.026zM44.59 24.48l-6.12-6.078.008 2.18 3.93 3.906zM50.535 8.45l-.007-2.18-8.51 8.563 1.095 1.086zM53.634 0L40.446 13.272l1.095 1.087L53.64 2.18zM50.504.01l-11.63 11.7 1.096 1.09L50.51 2.19zM14.388 16.567c-.012-3.506-2.396-6.373-6.062-6.36-3.664.01-6.03 2.892-6.018 6.397.01 3.506 2.394 6.372 6.058 6.36 3.666-.01 6.033-2.89 6.022-6.397M0 16.613c-.015-4.75 3.434-8.427 8.32-8.442 4.886-.015 8.36 3.64 8.376 8.39.015 4.75-3.436 8.425-8.323 8.44C3.487 25.016.015 21.362 0 16.613M32.04 16.51c-.01-3.505-2.395-6.37-6.06-6.36-3.664.013-6.03 2.894-6.02 6.4.012 3.505 2.397 6.372 6.06 6.36 3.665-.012 6.03-2.892 6.02-6.4m-14.387.047c-.015-4.75 3.435-8.427 8.32-8.442 4.887-.015 8.36 3.64 8.376 8.39.015 4.75-3.436 8.424-8.322 8.44-4.888.014-8.36-3.638-8.375-8.388M51.485 8.44l2.173-.005.044 13.98 7.973-.026.006 2.036-10.143.032zM70.19 11.188h-.045l-5.342 13.23-2.44.006 6.69-16.04 2.355-.006 6.65 15.997-2.442.007zM35.493 8.494l2.2-.007.05 16.016-2.2.007zM77.24 8.463c.182 0 .36.045.533.138.174.094.31.228.407.4a1.095 1.095 0 0 1 .004 1.084c-.095.172-.23.306-.4.402a1.092 1.092 0 0 1-1.08.004.996.996 0 0 1-.4-.398 1.094 1.094 0 0 1-.146-.538c-.002-.188.047-.37.145-.543a.994.994 0 0 1 .403-.403c.174-.095.352-.142.535-.144m0 .18c-.15 0-.3.04-.444.118a.916.916 0 0 0-.457.79c0 .156.04.306.122.448.08.143.192.255.336.333a.9.9 0 0 0 .9-.003.826.826 0 0 0 .332-.334.913.913 0 0 0-.004-.902.832.832 0 0 0-.34-.332.926.926 0 0 0-.443-.115m-.47 1.505l-.004-1.167h.4c.138 0 .237.01.3.03.06.022.107.06.145.114a.303.303 0 0 1-.034.394.36.36 0 0 1-.24.107c.04.017.073.037.098.06a1.4 1.4 0 0 1 .173.23l.143.23h-.23l-.103-.184c-.08-.143-.146-.234-.196-.27a.24.24 0 0 0-.15-.04h-.11l.002.496-.192.002zm.187-.657h.23c.107 0 .183-.016.222-.048a.162.162 0 0 0 .058-.13.17.17 0 0 0-.028-.093.19.19 0 0 0-.08-.062.587.587 0 0 0-.19-.02h-.213v.353z" fill="#9193A8"></path>
  </symbol></defs><use xlink:href="#ookla-logo" fill="#D7D8DF"></use></svg>