<svg xmlns:xlink="http://www.w3.org/1999/xlink" xmlns="http://www.w3.org/2000/svg" class="svg-icon svg-icon-larger" width="24"  height="24" ><defs><symbol id="ic_settingsalt" viewBox="0 0 24 24" fill="#9193A8">
    <path d="M21.783 14.12l-1.354-1.2c.038-.33.06-.634.06-.925 0-.297-.017-.594-.06-.924l1.353-1.193a1.94 1.94 0 0 0 .39-2.42l-1.116-1.91a1.964 1.964 0 0 0-2.3-.87l-1.722.562a8.716 8.716 0 0 0-1.634-.936l-.368-1.755c-.188-.9-.99-1.55-1.916-1.55h-2.23c-.917 0-1.72.65-1.913 1.546l-.37 1.756a8.53 8.53 0 0 0-1.633.935L5.247 4.66a1.97 1.97 0 0 0-2.3.868L1.83 7.438a1.94 1.94 0 0 0 .39 2.42l1.35 1.195c-.04.33-.062.638-.062.935 0 .297.017.6.06.93l-1.353 1.2a1.94 1.94 0 0 0-.39 2.42l1.122 1.916a1.964 1.964 0 0 0 2.3.87l1.728-.562c.506.37 1.05.682 1.634.93l.368 1.76c.187.9.99 1.548 1.915 1.548h2.23c.918 0 1.72-.65 1.914-1.546l.37-1.76a8.583 8.583 0 0 0 1.633-.936l1.722.56a1.972 1.972 0 0 0 2.3-.868l1.117-1.91a1.95 1.95 0 0 0-.397-2.42zm-.726 1.765l-1.117 1.91a.667.667 0 0 1-.78.29l-2.384-.775-.275.22c-.566.45-1.21.82-1.903 1.09l-.33.127-.512 2.443a.66.66 0 0 1-.644.517h-2.228a.656.656 0 0 1-.644-.517l-.512-2.438-.33-.127a7.237 7.237 0 0 1-1.904-1.084l-.27-.214-2.382.777a.67.67 0 0 1-.78-.292L2.94 15.903a.64.64 0 0 1 .132-.803l1.876-1.663-.055-.347c-.066-.413-.093-.76-.093-1.09s.028-.677.094-1.09l.055-.352-1.876-1.656a.64.64 0 0 1-.132-.803l1.123-1.916a.667.667 0 0 1 .78-.292l2.378.776.275-.22c.567-.45 1.21-.82 1.904-1.084l.33-.127.512-2.432a.66.66 0 0 1 .644-.517h2.23a.65.65 0 0 1 .643.517l.513 2.438.33.127c.693.27 1.337.633 1.904 1.09l.275.22 2.377-.776c.296-.1.626.028.78.292l1.117 1.91c.154.263.1.6-.132.802L19.05 10.57l.054.347c.06.407.094.754.094 1.084s-.028.672-.094 1.08l-.055.347 1.88 1.662c.226.2.28.53.127.795z" fill="#9193A8"></path>
    <path d="M12 15.23c-1.8 0-3.26-1.453-3.26-3.236S10.206 8.758 12 8.758s3.257 1.453 3.257 3.236S13.8 15.23 12 15.23zm0-5.178c-1.085 0-1.965.87-1.965 1.942s.88 1.942 1.964 1.942 1.963-.87 1.963-1.942-.88-1.942-1.964-1.942z" fill="#9193A8"></path>
  </symbol></defs><use xlink:href="#ic_settingsalt" fill="#9193A8"></use></svg>