<svg xmlns:xlink="http://www.w3.org/1999/xlink" xmlns="http://www.w3.org/2000/svg" class="svg-icon svg-icon-larger" width="16"  height="16" ><defs><symbol id="icon-twitter-no-circle" viewBox="0 0 16 16" fill="#9193A8">
    <path d="M16,3a6.62,6.62,0,0,1-1.89.52,3.3,3.3,0,0,0,1.44-1.82,6.59,6.59,0,0,1-2.09.8A3.28,3.28,0,0,0,7.79,4.78a3.36,3.36,0,0,0,.09.75A9.33,9.33,0,0,1,1.11,2.1,3.24,3.24,0,0,0,.67,3.75,3.28,3.28,0,0,0,2.13,6.48,3.28,3.28,0,0,1,.64,6.07v0A3.29,3.29,0,0,0,3.28,9.33a3.33,3.33,0,0,1-1.48.06,3.29,3.29,0,0,0,3.07,2.28,6.59,6.59,0,0,1-4.08,1.4A6.75,6.75,0,0,1,0,13,9.3,9.3,0,0,0,5,14.5a9.27,9.27,0,0,0,9.34-9.34c0-.14,0-0.28,0-0.43A6.67,6.67,0,0,0,16,3h0Z" fill="#9193A8"></path>
  </symbol></defs><use xlink:href="#icon-twitter-no-circle" fill="#9193A8"></use></svg>