<svg xmlns:xlink="http://www.w3.org/1999/xlink" xmlns="http://www.w3.org/2000/svg" class="svg-icon gauge-icon icon-gauge-upload test-mode-multi" title="Upload" wfd-invisible="true" width="24.01"  height="23.99" ><defs><symbol id="icon-upload" viewBox="0 0 24.01 23.99" fill="#9193A8">
    <path d="M54.26,238a12,12,0,1,0,12,12A12,12,0,0,0,54.26,238Zm0,22a10,10,0,1,1,10-10A10,10,0,0,1,54.28,260ZM55,244.28a1,1,0,0,0-1.42,0l-5,5A1,1,0,0,0,50,250.7l3.3-3.3V255a1,1,0,0,0,2,0v-7.59l3.3,3.3A1,1,0,0,0,60,249.29Z" transform="translate(-42.26 -238)" fill="#9193A8"></path>
  </symbol></defs><use xlink:href="#icon-upload" fill="#BF71FF"></use></svg>