<svg xmlns:xlink="http://www.w3.org/1999/xlink" xmlns="http://www.w3.org/2000/svg" class="svg-icon" width="24"  height="24" ><defs><symbol id="ic_account-line" viewBox="0 0 24 24" fill="#9193A8">
    <path d="M22.27 22.385a.73.73 0 0 1-.733-.727v-.483c0-1.337-.83-2.536-2.062-2.976-1.518-.545-4.037-1.194-7.475-1.194s-5.957.65-7.47 1.19c-1.23.44-2.06 1.638-2.06 2.975v.48a.735.735 0 0 1-1.47.004v-.48c0-1.957 1.22-3.706 3.036-4.355 1.622-.584 4.317-1.277 7.964-1.277s6.34.693 7.964 1.276C21.78 17.47 23 19.22 23 21.174v.48c0 .4-.33.73-.73.73zM12 3.085c2.425 0 4.4 1.975 4.4 4.4s-1.974 4.4-4.4 4.4-4.4-1.973-4.4-4.4 1.975-4.4 4.4-4.4m0-1.468a5.87 5.87 0 0 0 0 11.737 5.87 5.87 0 0 0 0-11.74v.003z" fill="#9193A8"></path>
  </symbol></defs><use xlink:href="#ic_account-line" fill="#FFFFFF"></use></svg>