<svg xmlns:xlink="http://www.w3.org/1999/xlink" xmlns="http://www.w3.org/2000/svg" id="ic_vpn" viewBox="0 0 24 24" width="24"  height="24" >
  <path d="M16.7 22.3H6.4c-.3 0-.5-.1-.5-.4v-20c0-.3.2-.6.5-.6h10.2c.4 0 .5.2.5.6v20c0 .2-.1.4-.4.4zm0-21.5H6.4c-.6 0-1 .5-1 1v20c0 .7.3 1 1 1h10.4c.5 0 .8-.3.8-.9V1.8c0-.6-.3-1-.9-1z" fill="#9193A8"></path>
  <path d="M12.5 20.1h-1.9c-.2 0-.3.1-.3.3 0 .2.1.3.3.3h1.9c.2 0 .3-.1.3-.3s-.1-.3-.3-.3M10.3 9.2c0-.7.6-1.3 1.3-1.3s1.3.6 1.3 1.3v1.5h-2.6V9.2zm3.3 1.4h-.1V9.2c0-1-.8-1.9-1.9-1.9s-1.9.8-1.9 1.9v1.5h-.2c-.5 0-.9.4-.9.9V14c0 .6.4 1 .9 1h4.1c.5 0 .9-.4.9-.9v-2.5c0-.6-.4-1-.9-1z" fill="#9193A8"></path>
</svg>