<svg xmlns:xlink="http://www.w3.org/1999/xlink" xmlns="http://www.w3.org/2000/svg" id="ic_windows" viewBox="0 0 24 24" width="24"  height="24" >
  <path d="M11.602 11.134V9.309l-1.989.234v1.591zm.281 0h2.504V8.981l-2.504.304zm-.281.257H9.613v1.592l1.989.234zm.281 0v1.849l2.504.305v-2.154z" fill="#9193A8"></path>
  <path d="M19.817 17.383H4.206a.79.79 0 0 1-.796-.796V5.891a.79.79 0 0 1 .796-.796h15.611a.79.79 0 0 1 .796.796v10.696a.79.79 0 0 1-.796.796zM4.206 5.494a.394.394 0 0 0-.398.398v10.696a.41.41 0 0 0 .398.398h15.611a.41.41 0 0 0 .398-.398V5.891a.41.41 0 0 0-.398-.398l-15.611.001zm18.607 13.41H1.187c-.117 0-.187-.117-.187-.21 0-.094.094-.164.187-.187h21.626a.226.226 0 0 1 .187.233c-.023.094-.094.164-.187.164z" fill="#9193A8"></path>
</svg>